<mxfile host="app.diagrams.net" modified="2023-10-16T02:03:38.277Z" agent="Mozilla/5.0 (Windows NT 10.0; Win64; x64; rv:109.0) Gecko/20100101 Firefox/118.0" etag="8QMqLhKC774FLuZAg6eO" version="22.0.4" type="github">
  <diagram name="Page-1" id="ufer6zuOkb92KaBHw9E2">
    <mxGraphModel dx="880" dy="470" grid="1" gridSize="10" guides="1" tooltips="1" connect="1" arrows="1" fold="1" page="1" pageScale="1" pageWidth="850" pageHeight="1100" math="0" shadow="0">
      <root>
        <mxCell id="0" />
        <mxCell id="1" parent="0" />
        <mxCell id="kKEjVSC8IYzAuCZzv7UR-4" value="" style="edgeStyle=orthogonalEdgeStyle;rounded=0;orthogonalLoop=1;jettySize=auto;html=1;" edge="1" parent="1" source="kKEjVSC8IYzAuCZzv7UR-1" target="kKEjVSC8IYzAuCZzv7UR-2">
          <mxGeometry relative="1" as="geometry" />
        </mxCell>
        <mxCell id="kKEjVSC8IYzAuCZzv7UR-1" value="mulai" style="ellipse;whiteSpace=wrap;html=1;" vertex="1" parent="1">
          <mxGeometry x="365" y="30" width="120" height="80" as="geometry" />
        </mxCell>
        <mxCell id="kKEjVSC8IYzAuCZzv7UR-5" value="" style="edgeStyle=orthogonalEdgeStyle;rounded=0;orthogonalLoop=1;jettySize=auto;html=1;" edge="1" parent="1" source="kKEjVSC8IYzAuCZzv7UR-2" target="kKEjVSC8IYzAuCZzv7UR-3">
          <mxGeometry relative="1" as="geometry" />
        </mxCell>
        <mxCell id="kKEjVSC8IYzAuCZzv7UR-2" value="menghitung luas segitiga" style="shape=parallelogram;perimeter=parallelogramPerimeter;whiteSpace=wrap;html=1;fixedSize=1;" vertex="1" parent="1">
          <mxGeometry x="365" y="150" width="120" height="60" as="geometry" />
        </mxCell>
        <mxCell id="kKEjVSC8IYzAuCZzv7UR-7" value="" style="edgeStyle=orthogonalEdgeStyle;rounded=0;orthogonalLoop=1;jettySize=auto;html=1;" edge="1" parent="1" source="kKEjVSC8IYzAuCZzv7UR-3" target="kKEjVSC8IYzAuCZzv7UR-6">
          <mxGeometry relative="1" as="geometry" />
        </mxCell>
        <mxCell id="kKEjVSC8IYzAuCZzv7UR-3" value="&lt;div&gt;LA 1/2 ALAS&lt;/div&gt;&lt;div&gt;TINGGI&lt;br&gt;&lt;/div&gt;" style="shape=parallelogram;perimeter=parallelogramPerimeter;whiteSpace=wrap;html=1;fixedSize=1;" vertex="1" parent="1">
          <mxGeometry x="365" y="250" width="120" height="60" as="geometry" />
        </mxCell>
        <mxCell id="kKEjVSC8IYzAuCZzv7UR-9" value="" style="edgeStyle=orthogonalEdgeStyle;rounded=0;orthogonalLoop=1;jettySize=auto;html=1;" edge="1" parent="1" source="kKEjVSC8IYzAuCZzv7UR-6" target="kKEjVSC8IYzAuCZzv7UR-8">
          <mxGeometry relative="1" as="geometry" />
        </mxCell>
        <mxCell id="kKEjVSC8IYzAuCZzv7UR-6" value="&lt;div&gt;LA - 1/2 kali alas&lt;/div&gt;&lt;div&gt;kali tinggi&lt;br&gt;&lt;/div&gt;" style="whiteSpace=wrap;html=1;aspect=fixed;" vertex="1" parent="1">
          <mxGeometry x="365" y="350" width="120" height="120" as="geometry" />
        </mxCell>
        <mxCell id="kKEjVSC8IYzAuCZzv7UR-11" value="" style="edgeStyle=orthogonalEdgeStyle;rounded=0;orthogonalLoop=1;jettySize=auto;html=1;" edge="1" parent="1" source="kKEjVSC8IYzAuCZzv7UR-8" target="kKEjVSC8IYzAuCZzv7UR-10">
          <mxGeometry relative="1" as="geometry" />
        </mxCell>
        <mxCell id="kKEjVSC8IYzAuCZzv7UR-8" value="luas segitiga" style="shape=parallelogram;perimeter=parallelogramPerimeter;whiteSpace=wrap;html=1;fixedSize=1;" vertex="1" parent="1">
          <mxGeometry x="365" y="510" width="120" height="60" as="geometry" />
        </mxCell>
        <mxCell id="kKEjVSC8IYzAuCZzv7UR-10" value="finish" style="ellipse;whiteSpace=wrap;html=1;" vertex="1" parent="1">
          <mxGeometry x="550" y="500" width="120" height="80" as="geometry" />
        </mxCell>
      </root>
    </mxGraphModel>
  </diagram>
</mxfile>
